<svg version="1.2" xmlns="http://www.w3.org/2000/svg" viewBox="0 0 300 300" width="300" height="300">
	<title>kristall-logo</title>
	<style>
		.s0 { fill: #7357d9 } 
		.s1 { fill: #f9f8fd } 
	</style>
	<g id="Background">
		<path id="Path 0" class="s0" d="m188.5 3.6c-4.4 0.8-12.1 2.6-17 4.1-4.9 1.4-13.1 4.1-18 6-4.9 1.9-14.8 6.2-22 9.7-7.2 3.4-18 9.1-24 12.6-6 3.5-15.5 9.2-21 12.8-5.5 3.5-15.2 10.3-21.5 15.1-6.3 4.7-16.6 13.5-22.9 19.6-6.2 6-14 14.6-17.3 19-3.3 4.4-7.9 12-10.4 17-2.4 5-5.2 11.9-6.1 15.5-1 4-1.7 10.3-1.7 16.5 0 6.3 0.7 12.4 1.7 16.5 1 3.6 3.2 9.7 5 13.5 1.8 3.8 4.8 9.3 6.7 12 1.8 2.7 6.3 8.5 9.9 12.9 3.6 4.3 10.6 11.4 15.6 15.7 5 4.4 14.2 11.6 20.5 16.2 6.3 4.5 17.3 11.7 24.5 16 7.2 4.3 19.8 11.2 28 15.4 8.3 4.2 20.8 10 28 12.8 7.2 2.9 17.9 6.7 24 8.4 6.1 1.7 15.3 3.9 20.5 4.7 6.6 1.1 13 1.4 21 1.1 6.3-0.3 14.2-1.3 17.5-2.2 3.3-0.8 9.6-3.3 14-5.4 5.3-2.6 10.5-6.2 15.4-10.8 4-3.7 9.4-9.9 12-13.8 2.5-3.9 6.2-10.8 8.2-15.5 2-4.7 4.9-12.6 6.3-17.5 1.4-4.9 3.8-15.3 5.3-23 2.7-13.8 2.7-14.5 2.8-54 0-39.5 0-40.2-2.8-55.5-1.5-8.5-3.6-18.9-4.7-23-1-4.1-3.1-10.9-4.6-15-1.4-4.1-4.8-11.8-7.5-17-2.6-5.2-7.3-12.5-10.4-16.3-3-3.7-8.5-8.9-12.3-11.7-3.7-2.7-10.1-6.4-14.2-8.1-4.1-1.7-10.8-3.8-14.8-4.5-3.9-0.8-11.4-1.4-16.4-1.3-5.1 0-12.9 0.7-17.3 1.5z"/>
		<path id="Path 1" class="s1" d="m192.8 106.1c-2.1 0.5-5.6 1.8-7.8 2.9-2.2 1.1-5.8 3.8-8 6-2.9 2.9-4.5 5.7-5.6 9.8-1.1 3.7-1.4 7.3-1 10.2 0.3 2.5 1.9 6.5 3.4 8.9 1.9 3.1 4.5 5.4 8.7 7.7 3.6 2 11.1 4.6 18.5 6.4 6.9 1.7 13.8 4 15.5 5 1.6 1 3.3 3.1 3.8 4.6 0.5 2 0.3 3.6-0.8 5.2-0.8 1.2-3.1 2.9-5 3.7-2 0.8-6.5 1.5-10.3 1.5-3.7 0-9.4-0.7-12.7-1.5-3.3-0.9-8-2.7-10.5-4.1-2.5-1.3-4.8-2.4-5.3-2.4-0.4 0-2.1 3-3.7 6.8-1.7 3.7-2.8 7.3-2.5 8 0.3 0.6 2.6 2.3 5.2 3.6 2.7 1.3 7.7 3.2 11.3 4.2 4.6 1.3 9.9 1.8 18.5 1.8 10.1-0.1 13-0.4 18-2.4 4.2-1.6 7.5-3.8 11-7.4 3-3 5.5-6.7 6.3-9.1 0.6-2.2 1.2-5.9 1.2-8.2 0-2.4-0.7-6-1.6-8-0.8-2.1-2.7-5.1-4.2-6.6-1.5-1.6-4.7-3.9-7.2-5.2-2.5-1.2-10.4-3.8-17.5-5.6-7.2-1.9-14.4-4.3-16-5.4-2.2-1.5-3.1-3-3.3-5.5-0.2-2.6 0.3-4.1 2-5.8 1.3-1.3 4.7-2.7 7.8-3.4 4.3-0.9 7.1-0.9 12.5 0.1 3.8 0.6 9.4 2.3 12.2 3.6l5.3 2.5c2.3-5.4 3.7-8.7 4.5-10.7 0.9-2.1 1.5-4.1 1.5-4.5 0-0.5-1.8-1.7-4-2.8-2.2-1.1-6.8-2.7-10.3-3.5-3.5-0.8-10.5-1.4-16.2-1.4-5.5 0.1-11.7 0.5-13.8 1zm-107.2 0.6c-0.5 0.3-0.8 19.9-0.7 43.5l0.2 42.8h21v-22c7.7-8.5 10.3-11 10.7-11 0.5-0.1 6.9 7.3 14.3 16.4l13.5 16.6c18.2 0 23.5-0.2 23.5-0.5 0-0.3-8.3-11-18.5-23.7-10.1-12.8-18.4-23.6-18.2-24 0.1-0.4 8-9 17.4-19.2 9.5-10.2 17.3-18.8 17.3-19.1 0-0.3-4.8-0.5-10.8-0.5l-10.7-0.1-38.4 39.6-0.1-39.5c-15.2 0-20 0.3-20.5 0.7z"/>
	</g>
</svg>